<svg xmlns="http://www.w3.org/2000/svg" width="21.198" height="25.225" viewBox="0 0 21.198 25.225">
  <path id="Icon_awesome-apple" data-name="Icon awesome-apple" d="M18,15.58A5.257,5.257,0,0,1,20.82,10.8a6.051,6.051,0,0,0-4.77-2.512c-2-.158-4.184,1.166-4.984,1.166-.845,0-2.782-1.109-4.3-1.109C3.621,8.4.281,10.855.281,15.85a14.036,14.036,0,0,0,.811,4.573c.721,2.067,3.323,7.135,6.037,7.051,1.419-.034,2.422-1.008,4.269-1.008,1.791,0,2.72,1.008,4.3,1.008,2.737-.039,5.091-4.646,5.778-6.719A5.583,5.583,0,0,1,18,15.58ZM14.817,6.333A5.3,5.3,0,0,0,16.168,2.25a5.972,5.972,0,0,0-3.824,1.965A5.387,5.387,0,0,0,10.9,8.265a4.73,4.73,0,0,0,3.914-1.932Z" transform="translate(-0.281 -2.25)"/>
</svg>
