<svg xmlns="http://www.w3.org/2000/svg" width="12.602" height="24.948" viewBox="0 0 12.602 24.948">
  <g id="XMLID_834_" transform="translate(-76.703)">
    <path id="XMLID_835_" d="M77.105,13.287H79.84V24.545a.4.4,0,0,0,.4.4h4.637a.4.4,0,0,0,.4-.4V13.34h3.144a.4.4,0,0,0,.4-.356L89.3,8.839a.4.4,0,0,0-.4-.448H85.282v-2.6c0-.783.422-1.18,1.254-1.18H88.9a.4.4,0,0,0,.4-.4V.405a.4.4,0,0,0-.4-.4H85.64c-.023,0-.074,0-.149,0A6.253,6.253,0,0,0,81.4,1.541a4.287,4.287,0,0,0-1.426,3.811V8.391H77.105a.4.4,0,0,0-.4.4v4.092A.4.4,0,0,0,77.105,13.287Z" fill="#385c8e"/>
  </g>
</svg>
