<svg width="301" height="208" viewBox="0 0 301 208" fill="none" xmlns="http://www.w3.org/2000/svg">
<path d="M204.386 54.2615C204.402 54.1876 204.418 54.1586 204.436 54.1771C204.47 54.2088 204.449 54.2351 204.386 54.2615Z" fill="white"/>
<path d="M154.305 0.427551H83V94.142H154.305V0.427551Z" fill="#E7EEF7"/>
<path d="M231.884 0.427551H160.579V94.142H231.884V0.427551Z" fill="#E7EEF7"/>
<path d="M154.308 94.142H89.258V54.0427H92.4582V44.7876H101.151V70.5109H108.066V59.6808H112.235V74.7797H117.955V35.8676H136.275V87.5279H146.261V27.5095H154.308V94.142Z" fill="white"/>
<path d="M231.881 74.7797V94.142H160.579V27.5095H175.44V89.1267H187.17V49.6183C187.17 49.6183 199.026 50.0484 199.923 49.6896C199.554 51.3834 199.881 81.1406 199.952 87.2218C199.96 87.9157 199.966 88.3009 199.966 88.3009H213.344V43.0675H222.845V74.7797H231.881Z" fill="white"/>
<path d="M147.543 20.7502H154.307V94.142H82.9999V41.3341H87.5721V50.6156H90.9042V62.5116H95.545V72.4131H100.779V54.42H109.465V80.9559H115.773V30.1478H130.526V60.9656H134.217V85.8341H143.615V23.3674H147.543V20.7502Z" fill="#B7CAE5"/>
<path d="M231.881 87.2245V94.1421H160.579V23.2065H165.035V87.5806H168.75V62.2346H178.028V73.3022H193.913V87.2245H208.727V64.5748H217.349V30.8417H227.235V87.2245H231.881Z" fill="#B7CAE5"/>
<path d="M191.85 99.2651L191.771 99.2281C191.193 98.9538 190.947 98.2625 191.222 97.6847L198.237 82.8998C198.511 82.322 199.203 82.0767 199.78 82.351L199.86 82.388C200.437 82.6623 200.683 83.3536 200.408 83.9314L193.393 98.7163C193.119 99.2941 192.428 99.5395 191.85 99.2651Z" fill="#1F3A6F"/>
<path d="M125.721 198.383C125.721 198.383 119.308 198.048 119.236 197.834C119.165 197.62 119.687 196.219 119.687 196.219L118.841 192.259L118.347 189.956L125.302 189.758L125.5 193.776L125.721 198.383Z" fill="#FDC8AA"/>
<path d="M112.588 199.997H129.04C128.542 197.003 125.051 194.684 120.814 194.684C118.543 194.684 116.485 195.351 114.989 196.433C113.691 197.367 112.817 198.61 112.588 199.997Z" fill="#C4C4C4"/>
<path d="M112.588 199.997H119.688C119.324 197.976 117.363 196.433 114.999 196.433H114.986C113.691 197.367 112.818 198.61 112.588 199.997Z" fill="#DFDFDF"/>
<path d="M85.9543 126.099L84.9834 131.521L84.8594 132.217L84.7697 132.193L79.9971 130.964L76.2797 130.009C76.2797 130.009 79.2161 123.814 79.4483 123.814C79.6726 123.825 79.8731 123.295 79.8731 123.295L83.1525 124.806L85.9543 126.099Z" fill="#FDC8AA"/>
<path d="M85.9544 126.099L84.9835 131.521C84.907 131.769 84.8331 131.996 84.7698 132.196L79.9971 130.967L83.1472 124.809L85.9544 126.099Z" fill="#F4A882"/>
<path d="M148.69 141.232C148.69 141.232 119.017 127.972 84.9071 123.442L82.0762 132.784C82.0762 132.784 114.865 163.027 137.509 162.18C160.154 161.331 148.69 141.232 148.69 141.232Z" fill="#15315E"/>
<path d="M125.494 193.779L118.838 192.262L118.345 189.956L125.299 189.761L125.494 193.779Z" fill="#F4A882"/>
<path d="M75.6282 114.91L73.8078 132.737C77.1057 132.529 80.0078 129.001 80.4774 124.411C80.728 121.949 80.232 119.643 79.2268 117.905C78.3562 116.395 77.1083 115.311 75.6282 114.91Z" fill="#C4C4C4"/>
<path d="M75.6282 114.91L74.842 122.603C77.0713 122.434 78.9603 120.479 79.2242 117.918L79.2268 117.902C78.3562 116.395 77.1083 115.311 75.6282 114.91Z" fill="#DFDFDF"/>
<path d="M173.44 180.136C169.878 181.73 163.56 180.981 156.837 179.052C147.635 176.414 137.667 171.562 132.945 167.452C124.769 160.339 125.938 191.122 125.938 191.122H118.083C118.083 191.122 92.1834 140.596 115.005 137.412C137.828 134.228 153.183 141.443 153.183 141.443C153.183 141.443 155.956 144.818 159.526 149.585C167.438 160.149 179.255 177.54 173.44 180.136Z" fill="#1F3A6F"/>
<path d="M173.44 180.136C169.878 181.73 163.559 180.981 156.837 179.052C144.804 167.853 152.597 143.464 152.597 143.464C152.597 143.464 155.526 146.055 159.528 149.585C167.438 160.149 179.255 177.54 173.44 180.136Z" fill="#15315E"/>
<path d="M226.145 135.734C223.438 148.079 212.365 180.545 170.77 181.004C170.77 181.004 148.97 179.857 152.194 146.828C152.368 145.055 152.613 143.193 152.938 141.232C152.938 141.232 155.777 139.744 160.618 137.773C172.881 132.782 197.989 124.706 222.412 129.911C225.053 130.476 226.725 133.093 226.145 135.734Z" fill="#C4C4C4"/>
<path d="M228.831 122.379C228.831 122.4 228.799 122.474 228.744 122.59C228.533 123.025 227.957 124.062 227.271 125.279C225.786 127.917 223.77 131.397 223.77 131.397C223.77 131.397 214.996 134.228 211.811 130.69C209.408 128.02 215.185 129.943 218.106 126.392C219.056 125.239 219.7 123.506 219.665 120.851L228.73 122.361L228.831 122.379Z" fill="#FDC8AA"/>
<path d="M228.743 122.59C228.532 123.025 227.957 124.062 227.271 125.279C225.287 126.154 221.683 127.331 218.106 126.392C219.056 125.239 219.699 123.506 219.665 120.851L228.73 122.361C228.738 122.44 228.741 122.516 228.743 122.59Z" fill="#F4A882"/>
<path d="M215.476 116.973C215.742 117.672 216.091 118.348 216.523 118.981C217.98 121.11 220.185 122.511 222.776 123.16C225.298 123.796 228.192 123.719 231.113 122.923C233.319 122.324 235.54 121.311 237.637 119.881C245.365 114.612 248.436 105.658 244.5 99.893C242.637 97.1623 239.542 95.6348 235.978 95.3393C235.239 95.2786 234.479 95.2707 233.706 95.3182C233.511 95.3287 233.319 95.3419 233.123 95.3604C229.915 95.6559 226.509 96.8589 223.388 98.9933C219.921 101.36 217.391 104.465 216.009 107.694C215.104 109.808 214.698 111.974 214.84 114.018C214.909 115.039 215.117 116.031 215.476 116.973Z" fill="#FDC8AA"/>
<path d="M235.975 95.3393C235.049 95.2627 234.094 95.2707 233.121 95.3604L231.297 108.961L237.244 105.592L235.975 95.3393Z" fill="#F4A882"/>
<path d="M233.727 93.2049C233.392 93.6587 234.432 104.141 234.265 104.344C234.099 104.547 230.337 108.304 230.764 109.647C231.192 110.99 237.727 110.578 235.186 113.673C233.463 115.773 231.83 120.556 230.96 123.413C230.667 124.374 231.619 125.244 232.551 124.867C235.988 123.474 242.486 120.245 245.557 114.797C249.845 107.193 249.937 100.56 247.283 97.2784C244.626 93.9964 250.921 69.8719 233.727 93.2049Z" fill="#1F3A6F"/>
<path d="M214.837 114.018C215.821 114.026 216.964 113.48 217.837 112.483C219.175 110.961 219.391 108.966 218.322 108.027C217.734 107.51 216.882 107.42 216.006 107.694C215.101 109.808 214.695 111.974 214.837 114.018Z" fill="#F4A882"/>
<path d="M152.194 146.828C152.368 145.055 152.613 143.192 152.938 141.232C152.938 141.232 155.777 139.744 160.618 137.773L169.675 151.157C169.675 151.157 179.851 155.859 186.787 155.577C193.496 155.3 169.585 163.974 152.194 146.828Z" fill="#ABA7A0"/>
<path d="M184.534 131.573C184.534 131.573 171.582 133.956 175.936 126.661C180.289 119.366 183.898 109.072 190.478 104.718C197.06 100.365 198.44 98.6688 196.211 97.7137C193.982 96.7587 192.391 99.3073 191.752 99.0936C191.116 98.8825 196.53 87.522 194.726 86.4615C192.921 85.4009 187.721 100.049 185.597 101.534C183.473 103.019 142.044 127.249 154.745 140.346C154.745 140.346 160.227 147.337 169.675 151.157L184.534 131.573Z" fill="#FDC8AA"/>
<path d="M183.418 183.192L185.038 184.263H188.394L188.557 184.162L189.974 183.308L190.006 183.289L203.991 174.833L217.95 166.394C218.235 166.222 218.278 165.895 218.045 165.681L216.006 163.803C215.79 163.605 215.412 163.573 215.151 163.734L201.717 171.971L200.445 172.752L192.195 177.809L186.998 180.996L186.763 181.142L183.418 183.192Z" fill="#D7E3F4"/>
<path d="M175.806 188.647H172.759V194.826H175.806V188.647Z" fill="#9FB8D6"/>
<path d="M170.92 194.858V197.721C170.92 198.085 171.261 198.38 171.68 198.38H176.886C177.207 198.38 177.484 198.206 177.593 197.958C177.624 197.884 177.643 197.802 177.643 197.721V194.858C177.643 194.494 177.302 194.198 176.883 194.198H171.68C171.635 194.198 171.593 194.201 171.554 194.209C171.195 194.259 170.92 194.531 170.92 194.858Z" fill="#D7E3F4"/>
<path d="M163.09 197.905H185.476V195.61H163.09V197.905Z" fill="#D7E3F4"/>
<path d="M172.759 189.196V192.259L175.806 189.6V189.196H172.759Z" fill="#8BA8C6"/>
<path d="M169.58 184.693V186.392C169.58 186.561 169.596 186.727 169.628 186.888C169.899 188.265 171.279 189.31 172.941 189.31H175.617C177.474 189.31 178.98 188.004 178.98 186.389V184.69C178.98 183.949 178.661 183.273 178.139 182.759C177.999 182.619 177.841 182.492 177.672 182.379C177.105 181.996 176.39 181.769 175.617 181.769H172.941C172.094 181.769 171.321 182.041 170.73 182.49C170.654 182.545 170.585 182.606 170.517 182.667C169.936 183.197 169.58 183.906 169.58 184.693Z" fill="#D7E3F4"/>
<path d="M170.92 194.858V197.721C170.92 198.085 171.261 198.38 171.68 198.38H176.886C177.207 198.38 177.484 198.206 177.593 197.958C171.897 198.071 171.453 195.428 171.554 194.206C171.195 194.259 170.92 194.531 170.92 194.858Z" fill="#9FB8D6"/>
<path d="M169.58 184.693V186.392C169.58 186.561 169.596 186.727 169.628 186.888L178.978 184.986V184.693C178.978 183.951 178.658 183.276 178.136 182.761C177.996 182.622 177.838 182.495 177.669 182.382L170.728 182.492C170.651 182.548 170.583 182.608 170.514 182.669C169.936 183.197 169.58 183.906 169.58 184.693Z" fill="#9FB8D6"/>
<path d="M160.148 181.783V183.482C160.148 183.914 160.568 184.263 161.085 184.263H188.394L188.557 184.162L188.758 183.474L189.489 180.996H161.085C160.568 180.999 160.148 181.35 160.148 181.783Z" fill="#D7E3F4"/>
<path d="M167.031 200C168.439 200 169.58 198.933 169.58 197.618C169.58 196.302 168.439 195.235 167.031 195.235C165.624 195.235 164.483 196.302 164.483 197.618C164.483 198.933 165.624 200 167.031 200Z" fill="#FFC973"/>
<path d="M167.031 198.707C167.676 198.707 168.198 198.219 168.198 197.618C168.198 197.016 167.676 196.528 167.031 196.528C166.387 196.528 165.865 197.016 165.865 197.618C165.865 198.219 166.387 198.707 167.031 198.707Z" fill="#F4B545"/>
<path d="M181.806 200C183.214 200 184.355 198.933 184.355 197.618C184.355 196.302 183.214 195.235 181.806 195.235C180.398 195.235 179.257 196.302 179.257 197.618C179.257 198.933 180.398 200 181.806 200Z" fill="#FFC973"/>
<path d="M181.806 198.707C182.45 198.707 182.972 198.219 182.972 197.618C182.972 197.016 182.45 196.528 181.806 196.528C181.162 196.528 180.64 197.016 180.64 197.618C180.64 198.219 181.162 198.707 181.806 198.707Z" fill="#F4B545"/>
<path d="M160.148 181.783V183.482C160.148 183.914 160.568 184.263 161.085 184.263H161.446L181.806 180.999H161.085C160.568 180.999 160.148 181.35 160.148 181.783Z" fill="#9FB8D6"/>
<path d="M74.697 71.2331V184.837C74.697 190.536 70.075 195.173 64.3942 195.173H11.9461C6.26533 195.173 1.64331 190.536 1.64331 184.837V71.2331C1.64331 65.5342 6.26533 60.8966 11.9461 60.8966H64.3942C70.0745 60.8966 74.697 65.5342 74.697 71.2331Z" fill="url(#paint0_linear_1_120)"/>
<path d="M71.5381 77.7286V184.837C71.5381 188.779 68.3233 192.004 64.3942 192.004H11.9461C8.01698 192.004 4.80219 188.779 4.80219 184.837V77.7286C4.80219 73.7866 8.01698 70.5613 11.9461 70.5613H64.3942C68.3233 70.5613 71.5381 73.7866 71.5381 77.7286Z" fill="url(#paint1_linear_1_120)"/>
<path d="M41.412 65.9044C41.412 66.4816 40.9455 66.9496 40.3703 66.9496H32.2158C31.6406 66.9496 31.1741 66.4816 31.1741 65.9044C31.1741 65.3273 31.6406 64.8593 32.2158 64.8593H40.3703C40.9459 64.8597 41.412 65.3273 41.412 65.9044Z" fill="white"/>
<path d="M45.0554 65.9058C45.0554 66.5314 44.5491 67.0394 43.9255 67.0394C43.2997 67.0394 42.7934 66.5314 42.7934 65.9058C42.7934 65.278 43.2997 64.77 43.9255 64.77C44.5491 64.77 45.0554 65.278 45.0554 65.9058Z" fill="white"/>
<path d="M1.64334 80.4428V86.8539H0.369414C0.165442 86.8539 -6.10352e-05 86.6878 -6.10352e-05 86.4832V80.8139C-6.10352e-05 80.6093 0.165442 80.4432 0.369414 80.4432H1.64334V80.4428Z" fill="#F4B544"/>
<path d="M1.64328 91.1041V100.899H0.369353C0.165381 100.899 -0.00012207 100.733 -0.00012207 100.529V91.4753C-0.00012207 91.2706 0.165381 91.1046 0.369353 91.1046H1.64328V91.1041Z" fill="#F4B544"/>
<path d="M1.64328 104.866V114.661H0.369353C0.165381 114.661 -0.00012207 114.495 -0.00012207 114.29V105.236C-0.00012207 105.032 0.165381 104.866 0.369353 104.866H1.64328Z" fill="#F4B544"/>
<path d="M20.5783 102.987H11.8442C11.3884 102.987 11.0176 102.615 11.0176 102.158V94.2029C11.0176 93.7456 11.3884 93.374 11.8442 93.374H20.5783C21.0341 93.374 21.4045 93.7456 21.4045 94.2029V102.158C21.4045 102.615 21.0341 102.987 20.5783 102.987ZM11.8442 94.1279C11.8026 94.1279 11.7691 94.1616 11.7691 94.2029V102.158C11.7691 102.199 11.8026 102.233 11.8442 102.233H20.5783C20.6195 102.233 20.653 102.199 20.653 102.158V94.2029C20.653 94.1616 20.6195 94.1279 20.5783 94.1279H11.8442Z" fill="#266B93"/>
<path d="M35.2178 102.987H26.4832C26.0274 102.987 25.657 102.615 25.657 102.158V94.2029C25.657 93.7456 26.0274 93.374 26.4832 93.374H35.2178C35.6736 93.374 36.044 93.7456 36.044 94.2029V102.158C36.044 102.615 35.6736 102.987 35.2178 102.987ZM26.4832 94.1279C26.4421 94.1279 26.4085 94.1616 26.4085 94.2029V102.158C26.4085 102.199 26.4421 102.233 26.4832 102.233H35.2178C35.2589 102.233 35.2925 102.199 35.2925 102.158V94.2029C35.2925 94.1616 35.2589 94.1279 35.2178 94.1279H26.4832Z" fill="#266B93"/>
<path d="M49.8572 102.987H41.1222C40.6664 102.987 40.296 102.615 40.296 102.158V94.2029C40.296 93.7456 40.6664 93.374 41.1222 93.374H49.8568C50.3126 93.374 50.6829 93.7456 50.6829 94.2029V102.158C50.6834 102.615 50.3126 102.987 49.8572 102.987ZM41.1222 94.1279C41.081 94.1279 41.0475 94.1616 41.0475 94.2029V102.158C41.0475 102.199 41.081 102.233 41.1222 102.233H49.8568C49.8979 102.233 49.9315 102.199 49.9315 102.158V94.2029C49.9315 94.1616 49.8979 94.1279 49.8568 94.1279H41.1222Z" fill="#266B93"/>
<path d="M64.4958 102.987H55.7617C55.3059 102.987 54.9355 102.615 54.9355 102.158V94.2029C54.9355 93.7456 55.3059 93.374 55.7617 93.374H64.4958C64.9516 93.374 65.3224 93.7456 65.3224 94.2029V102.158C65.3224 102.615 64.9516 102.987 64.4958 102.987ZM55.7617 94.1279C55.7205 94.1279 55.687 94.1616 55.687 94.2029V102.158C55.687 102.199 55.7205 102.233 55.7617 102.233H64.4958C64.5374 102.233 64.5709 102.199 64.5709 102.158V94.2029C64.5709 94.1616 64.5374 94.1279 64.4958 94.1279H55.7617Z" fill="#266B93"/>
<path d="M64.9465 80.4418H11.3932V82.1436H64.9465V80.4418Z" fill="#266B93"/>
<path d="M64.9465 84.6504H11.3932V86.3521H64.9465V84.6504Z" fill="#266B93"/>
<path d="M20.5783 133.16H11.8442C11.3884 133.16 11.0176 132.788 11.0176 132.331V124.375C11.0176 123.918 11.3884 123.547 11.8442 123.547H20.5783C21.0341 123.547 21.4045 123.919 21.4045 124.375V132.331C21.4045 132.788 21.0341 133.16 20.5783 133.16ZM11.8442 124.3C11.8026 124.3 11.7691 124.334 11.7691 124.375V132.331C11.7691 132.372 11.8026 132.406 11.8442 132.406H20.5783C20.6195 132.406 20.653 132.372 20.653 132.331V124.375C20.653 124.334 20.6195 124.3 20.5783 124.3H11.8442Z" fill="#266B93"/>
<path d="M35.2178 133.16H26.4832C26.0274 133.16 25.657 132.788 25.657 132.331V124.375C25.657 123.918 26.0274 123.547 26.4832 123.547H35.2178C35.6736 123.547 36.044 123.919 36.044 124.375V132.331C36.044 132.788 35.6736 133.16 35.2178 133.16ZM26.4832 124.3C26.4421 124.3 26.4085 124.334 26.4085 124.375V132.331C26.4085 132.372 26.4421 132.406 26.4832 132.406H35.2178C35.2589 132.406 35.2925 132.372 35.2925 132.331V124.375C35.2925 124.334 35.2589 124.3 35.2178 124.3H26.4832Z" fill="#266B93"/>
<path d="M49.8572 133.16H41.1222C40.6664 133.16 40.296 132.788 40.296 132.331V124.375C40.296 123.918 40.6664 123.547 41.1222 123.547H49.8568C50.3126 123.547 50.6829 123.919 50.6829 124.375V132.331C50.6834 132.788 50.3126 133.16 49.8572 133.16ZM41.1222 124.3C41.081 124.3 41.0475 124.334 41.0475 124.375V132.331C41.0475 132.372 41.081 132.406 41.1222 132.406H49.8568C49.8979 132.406 49.9315 132.372 49.9315 132.331V124.375C49.9315 124.334 49.8979 124.3 49.8568 124.3H41.1222Z" fill="#266B93"/>
<path d="M64.4958 133.16H55.7617C55.3059 133.16 54.9355 132.788 54.9355 132.331V124.375C54.9355 123.918 55.3059 123.547 55.7617 123.547H64.4958C64.9516 123.547 65.3224 123.919 65.3224 124.375V132.331C65.3224 132.788 64.9516 133.16 64.4958 133.16ZM55.7617 124.3C55.7205 124.3 55.687 124.334 55.687 124.375V132.331C55.687 132.372 55.7205 132.406 55.7617 132.406H64.4958C64.5374 132.406 64.5709 132.372 64.5709 132.331V124.375C64.5709 124.334 64.5374 124.3 64.4958 124.3H55.7617Z" fill="#266B93"/>
<path d="M64.9465 110.614H11.3932V112.316H64.9465V110.614Z" fill="#266B93"/>
<path d="M64.9465 114.823H11.3932V116.525H64.9465V114.823Z" fill="#266B93"/>
<path d="M20.5783 163.897H11.8442C11.3884 163.897 11.0176 163.526 11.0176 163.068V155.113C11.0176 154.656 11.3884 154.284 11.8442 154.284H20.5783C21.0341 154.284 21.4045 154.656 21.4045 155.113V163.068C21.4045 163.526 21.0341 163.897 20.5783 163.897ZM11.8442 155.038C11.8026 155.038 11.7691 155.072 11.7691 155.113V163.068C11.7691 163.11 11.8026 163.143 11.8442 163.143H20.5783C20.6195 163.143 20.653 163.11 20.653 163.068V155.113C20.653 155.072 20.6195 155.038 20.5783 155.038H11.8442Z" fill="#266B93"/>
<path d="M35.2178 163.897H26.4832C26.0274 163.897 25.657 163.526 25.657 163.068V155.113C25.657 154.656 26.0274 154.284 26.4832 154.284H35.2178C35.6736 154.284 36.044 154.656 36.044 155.113V163.068C36.044 163.526 35.6736 163.897 35.2178 163.897ZM26.4832 155.038C26.4421 155.038 26.4085 155.072 26.4085 155.113V163.068C26.4085 163.11 26.4421 163.143 26.4832 163.143H35.2178C35.2589 163.143 35.2925 163.11 35.2925 163.068V155.113C35.2925 155.072 35.2589 155.038 35.2178 155.038H26.4832Z" fill="#266B93"/>
<path d="M49.8572 163.897H41.1222C40.6664 163.897 40.296 163.526 40.296 163.068V155.113C40.296 154.656 40.6664 154.284 41.1222 154.284H49.8568C50.3126 154.284 50.6829 154.656 50.6829 155.113V163.068C50.6834 163.526 50.3126 163.897 49.8572 163.897ZM41.1222 155.038C41.081 155.038 41.0475 155.072 41.0475 155.113V163.068C41.0475 163.11 41.081 163.143 41.1222 163.143H49.8568C49.8979 163.143 49.9315 163.11 49.9315 163.068V155.113C49.9315 155.072 49.8979 155.038 49.8568 155.038H41.1222Z" fill="#266B93"/>
<path d="M64.4958 163.897H55.7617C55.3059 163.897 54.9355 163.526 54.9355 163.068V155.113C54.9355 154.656 55.3059 154.284 55.7617 154.284H64.4958C64.9516 154.284 65.3224 154.656 65.3224 155.113V163.068C65.3224 163.526 64.9516 163.897 64.4958 163.897ZM55.7617 155.038C55.7205 155.038 55.687 155.072 55.687 155.113V163.068C55.687 163.11 55.7205 163.143 55.7617 163.143H64.4958C64.5374 163.143 64.5709 163.11 64.5709 163.068V155.113C64.5709 155.072 64.5374 155.038 64.4958 155.038H55.7617Z" fill="#266B93"/>
<path d="M64.9465 141.352H11.3932V143.054H64.9465V141.352Z" fill="#266B93"/>
<path d="M64.9465 145.56H11.3932V147.262H64.9465V145.56Z" fill="#266B93"/>
<path d="M54.2319 174.201V182.929C54.2319 183.774 53.5484 184.46 52.7057 184.46H23.6348C22.7921 184.46 22.1086 183.774 22.1086 182.929V174.201C22.1086 173.356 22.7921 172.67 23.6348 172.67H52.7057C53.5484 172.67 54.2319 173.355 54.2319 174.201Z" fill="#9FB8D6"/>
<path d="M59.7199 129.8C59.5705 129.8 59.4273 129.741 59.3213 129.635L58.3981 128.708C58.178 128.487 58.178 128.129 58.3981 127.909C58.6182 127.688 58.9747 127.688 59.1947 127.909L59.7038 128.42L61.0475 126.962C61.2591 126.733 61.616 126.719 61.8441 126.931C62.0727 127.143 62.0866 127.501 61.8755 127.73L60.1336 129.619C60.0294 129.732 59.884 129.797 59.7306 129.801C59.727 129.8 59.7235 129.8 59.7199 129.8Z" fill="#266B93"/>
<path d="M15.802 99.572C15.6526 99.572 15.5095 99.5127 15.4035 99.4064L14.4802 98.4801C14.2602 98.2593 14.2602 97.9012 14.4802 97.6808C14.7003 97.46 15.0568 97.46 15.2769 97.6808L15.7859 98.1915L17.1296 96.7339C17.3412 96.5046 17.6982 96.4907 17.9263 96.703C18.1549 96.9148 18.1687 97.2729 17.9576 97.5018L16.2158 99.3911C16.1116 99.5037 15.9662 99.5693 15.8128 99.5724C15.8092 99.572 15.8056 99.572 15.802 99.572Z" fill="#A3A3A4"/>
<path d="M45.0805 160.661C44.9311 160.661 44.7879 160.602 44.6819 160.496L43.7587 159.57C43.5386 159.349 43.5386 158.991 43.7587 158.77C43.9788 158.55 44.3353 158.55 44.5553 158.77L45.0644 159.281L46.4081 157.823C46.6201 157.594 46.9766 157.58 47.2047 157.792C47.4333 158.004 47.4472 158.362 47.236 158.591L45.4942 160.481C45.39 160.593 45.2446 160.659 45.0912 160.662C45.0876 160.661 45.0841 160.661 45.0805 160.661Z" fill="#266B93"/>
<path d="M277.727 176.391L276.4 176.351C283.346 155.971 275.21 134.954 275.128 134.746L276.45 134.44C276.534 134.651 284.739 155.828 277.727 176.391Z" fill="#21A58C"/>
<path d="M290.103 191.458H267.042L264.667 172.473H292.477L290.103 191.458Z" fill="#B7CAE5"/>
<path d="M295.063 169.977H262.082V174.969H295.063V169.977Z" fill="#B7CAE5"/>
<path d="M279.853 152.008C278.837 153.348 265.139 131.255 253.911 120.837C242.685 110.418 253.114 89.3988 260.937 90.9396C268.683 92.4671 241.551 48.5529 260.525 49.347C279.5 50.1385 285.117 74.2207 282.067 86.8344C279.017 99.4507 280.621 102.651 285.615 98.5959C290.609 94.5435 320.253 98.6354 279.853 152.008Z" fill="#3DBC9B"/>
<path d="M264.348 59.879C265.527 63.2297 266.583 66.6199 267.59 70.0259C268.593 73.4319 269.543 76.8564 270.427 80.2941C270.888 82.009 271.3 83.737 271.719 85.4625C271.925 86.3252 272.142 87.1879 272.339 88.0533L272.93 90.652C273.326 92.3853 273.706 94.1187 274.052 95.8626C274.403 97.6039 274.769 99.3425 275.107 101.086L276.044 106.334L276.276 107.645L276.484 108.962L276.893 111.597L277.289 114.233C277.421 115.112 277.518 115.995 277.634 116.877C277.859 118.639 278.083 120.404 278.281 122.169C279.014 129.242 279.423 136.355 279.294 143.455C278.756 136.371 278.001 129.337 277.038 122.322L276.244 117.072C276.109 116.198 275.993 115.32 275.843 114.449L275.392 111.835L274.954 109.218L274.738 107.909L274.497 106.603L273.529 101.385C272.859 97.9099 272.189 94.4327 271.445 90.9712L270.912 88.3699C270.733 87.5019 270.535 86.6392 270.347 85.7738L269.78 83.1777C269.601 82.3097 269.406 81.447 269.21 80.5817C267.664 73.672 266.042 66.7729 264.348 59.879Z" fill="#21A58C"/>
<path d="M264.979 174.969L291.501 180.272L292.166 174.969H264.979Z" fill="#9FB8D6"/>
<path d="M156.342 207.067C230.537 207.067 290.684 205.485 290.684 203.533C290.684 201.582 230.537 200 156.342 200C82.1469 200 22 201.582 22 203.533C22 205.485 82.1469 207.067 156.342 207.067Z" fill="#E4EFFA"/>
<defs>
<linearGradient id="paint0_linear_1_120" x1="1.64309" y1="128.035" x2="74.6969" y2="128.035" gradientUnits="userSpaceOnUse">
<stop offset="3.2e-07" stop-color="#F4B544"/>
<stop offset="1" stop-color="#F4B545"/>
</linearGradient>
<linearGradient id="paint1_linear_1_120" x1="30.2413" y1="186.871" x2="44.6239" y2="86.6894" gradientUnits="userSpaceOnUse">
<stop stop-color="white"/>
<stop offset="1" stop-color="white"/>
</linearGradient>
</defs>
</svg>
