<svg width="275" height="223" viewBox="0 0 275 223" fill="none" xmlns="http://www.w3.org/2000/svg">
<g opacity="0.3">
<path d="M190.341 89.5564C189.532 88.5042 190.023 86.6143 190.073 86.4328L189.651 86.4947C189.647 86.4947 189.639 86.4947 189.635 86.4947C189.577 86.4947 189.527 86.4534 189.519 86.3957C189.511 86.3338 189.556 86.276 189.618 86.2636C187.07 69.3542 198.395 54.7721 202.405 50.2167L208.195 29.0738L210 22.4883L209.182 22.2655L167.907 10.9843L138.678 3L137.687 6.62285L135.672 13.9882L128.345 40.7346L128.337 40.7717L118.995 74.8958L118.615 76.2781L114.402 91.669L114.035 93.01L109 111.397L113.535 112.634L119.54 114.277L121.097 114.702L144.931 121.213L180.317 130.885L181.519 126.499L191.469 90.1671C191.039 90.0969 190.626 89.9277 190.341 89.5564ZM194.161 50.3405L155.934 39.8928L156.516 37.7637L194.744 48.2113L194.161 50.3405ZM175.39 19.5298L178.236 20.3055L176.468 34.9331L176.522 34.9496L182.428 21.4526L185.22 22.216L177.063 39.7938L173.453 38.8076L175.39 19.5298ZM160.865 30.8935L163.632 20.7841C164.396 17.9948 166.424 16.7941 169.137 17.5368C171.88 18.2878 173.04 20.3591 172.276 23.1485L171.822 24.8072L169.096 24.2048L169.509 22.7028C169.914 21.2298 169.538 20.421 168.514 20.1404C167.485 19.8599 166.754 20.3674 166.42 21.5764L163.665 31.6321C163.335 32.8452 163.706 33.6539 164.735 33.9345C165.763 34.2151 166.494 33.7076 166.899 32.2345L167.461 30.1796L170.112 31.0461L169.505 33.2578C168.741 36.0471 166.688 37.2396 163.946 36.4928C161.237 35.7501 160.101 33.6869 160.865 30.8935ZM141.962 11.5331L159.676 16.3732L153.233 39.9176L135.515 35.0775L141.962 11.5331ZM134.416 39.0882L172.644 49.5359L172.062 51.665L133.834 41.2173L134.416 39.0882ZM133.247 43.363L192.373 59.5214L192.183 60.2187L133.057 44.0603L133.247 43.363ZM132.682 45.4385L191.807 61.5969L191.617 62.2942L132.488 46.1358L132.682 45.4385ZM132.112 47.514L191.237 63.6724L191.047 64.3697L131.922 48.2113L132.112 47.514ZM129.65 56.4968L167.878 66.9445L167.295 69.0737L129.068 58.626L129.65 56.4968ZM124.884 73.9055L163.112 84.3532L162.529 86.4823L124.302 76.0346L124.884 73.9055ZM167.242 96.4266L122.1 84.0891L122.29 83.3917L167.432 95.7292L167.242 96.4266ZM167.96 93.7982L122.819 81.4607L123.009 80.7633L168.15 93.1008L167.96 93.7982ZM171.153 82.1415L126.012 69.804L126.202 69.1067L171.343 81.4442L171.153 82.1415ZM171.872 79.5131L126.73 67.1756L126.92 66.4782L172.062 78.8157L171.872 79.5131ZM172.59 76.8847L127.449 64.5472L127.639 63.8498L172.78 76.1873L172.59 76.8847ZM173.313 74.2521L128.172 61.9146L128.362 61.2173L173.503 73.5548L173.313 74.2521ZM175.927 64.704L130.786 52.3665L130.976 51.6691L176.117 64.0066L175.927 64.704ZM131.352 50.291L131.542 49.5936L190.667 65.752L190.477 66.4494L131.352 50.291Z" fill="#C4C4C4"/>
<path d="M189.239 97.4604L202.734 49.9324V46.5971L195.468 58.0622L190.693 67.8597L182.388 85.37L189.239 97.4604Z" fill="#C4C4C4"/>
</g>
<path d="M140.658 222.582C214.853 222.582 275 221 275 219.049C275 217.097 214.853 215.515 140.658 215.515C66.463 215.515 6.31604 217.097 6.31604 219.049C6.31604 221 66.463 222.582 140.658 222.582Z" fill="#E4EFFA"/>
<path d="M83.5537 203.485L83.236 204.862L82.2653 209.065L79.0051 210.19L78.0974 205.699L77.52 202.853L77.4847 202.669L83.5537 203.485Z" fill="#FCC8AB"/>
<path d="M83.5537 203.485L83.236 204.862C82.2401 205.029 79.459 205.479 78.0975 205.701L77.5226 202.856L80.8332 203.121L83.5537 203.485Z" fill="#FAB188"/>
<path d="M87.4291 211.643L76.746 210.205C77.3309 208.3 79.7994 207.094 82.5527 207.466C84.0277 207.665 85.3061 208.279 86.1835 209.113C86.9399 209.834 87.3988 210.721 87.4291 211.643Z" fill="#F4B544"/>
<path d="M87.429 211.643L82.8174 211.022C83.2284 209.738 84.6378 208.904 86.1733 209.111H86.1834C86.9399 209.834 87.3987 210.721 87.429 211.643Z" fill="#FECA74"/>
<path d="M94.5419 200.571L94.2696 201.958L93.4375 206.192L90.2152 207.423L89.1612 202.962L88.4931 200.136L88.4502 199.952L94.5419 200.571Z" fill="#FCC8AB"/>
<path d="M94.5418 200.571L94.2695 201.958C93.2786 202.158 90.5152 202.699 89.1612 202.962L88.493 200.136L91.8087 200.293L94.5418 200.571Z" fill="#FAB188"/>
<path d="M98.6795 208.6L87.9535 207.511C88.4754 205.588 90.906 204.304 93.667 204.584C95.1495 204.736 96.4455 205.307 97.3507 206.113C98.1349 206.808 98.6215 207.678 98.6795 208.6Z" fill="#F4B544"/>
<path d="M98.6794 208.6L94.0502 208.13C94.4208 206.834 95.8 205.954 97.3431 206.111H97.3532C98.1348 206.808 98.6214 207.678 98.6794 208.6Z" fill="#FECA74"/>
<path d="M131.041 74.1655C131.006 74.2944 130.941 74.5294 130.739 74.6431C129.647 75.2598 126.274 71.4409 122.802 66.9599C122.393 66.2876 121.722 65.3398 120.759 64.5689C120.144 64.0786 119.413 63.6565 118.551 63.4265C115.051 62.4889 111.702 65.3044 110.048 66.6439C100.828 74.1073 101.622 86.2692 97.9634 91.4529C97.2524 92.4613 96.3699 93.2069 95.2151 93.6012C91.3523 94.9179 86.0171 91.8674 83.9369 88.1243C79.1867 79.569 89.4411 63.8057 101.635 56.734C104.34 55.1645 111.095 51.1813 120.285 51.7778C124.372 52.0431 128.598 51.9067 131.389 54.7348C135.255 58.6498 133.48 65.0694 131.041 74.1655Z" fill="#1F3B6F"/>
<path d="M120.759 64.5689C120.144 64.0786 119.413 63.6565 118.551 63.4265C115.051 62.4889 111.702 65.3044 110.048 66.6439C100.828 74.1073 101.622 86.2692 97.9634 91.4529C94.3402 91.0232 91.8768 90.4192 91.9171 90.2372C92.0911 89.484 93.1904 85.0206 93.1904 85.0206C93.1904 85.0206 109.421 50.787 120.759 64.5689Z" fill="#1A325E"/>
<path d="M172.42 106.966H162.66V100.83C162.66 100.83 163.229 100.559 164.104 100.238C165.905 99.5785 168.988 98.704 171.031 99.5229C174.066 100.736 177.253 102.604 177.438 104.611C177.624 106.62 174.24 106.966 172.42 106.966Z" fill="#FCC8AB"/>
<path d="M167.614 106.966H162.783L162.66 105.773V100.832C162.66 100.832 163.229 100.562 164.104 100.241L167.614 106.966Z" fill="#FAB188"/>
<path d="M71.0123 87.1664C71.0123 87.1664 107.6 80.9945 162.899 98.9946L163.681 106.969H81.0575L71.0123 87.1664Z" fill="#E69E29"/>
<path d="M172.874 102.571L169.732 92.5953C169.609 92.201 169.19 91.9836 168.797 92.1075L168.121 92.3223C167.728 92.4462 167.511 92.8657 167.634 93.26L170.811 103.349C171.57 103.238 172.266 102.94 172.874 102.571Z" fill="#A0B8D6"/>
<path d="M92.5677 106.966L122.93 106.964L122.063 96.5557L90.485 96.0351L92.5677 106.966Z" fill="#D89028"/>
<path d="M25.9905 144.121C25.9905 144.121 27.4151 161.383 38.5697 160.469C49.7218 159.556 72.8656 162.923 72.8656 162.923C72.8656 162.923 75.6971 162.43 77.041 166.115C78.3849 169.8 81.0399 186.331 88.5561 201.68L95.1697 201.139C95.1697 201.139 96.317 155.201 89.2621 151.941C82.2073 148.681 60.715 146.548 56.3505 146.381L25.9905 144.121Z" fill="#1A325E"/>
<path d="M83.9193 203.983H77.283C71.0376 188.073 69.7365 171.377 68.6952 167.596C67.6539 163.815 64.7921 164.075 64.7921 164.075C64.7921 164.075 42.5434 164.075 31.3535 164.075C24.8332 164.075 22.2437 158.962 21.2175 154.696C20.4838 151.64 20.5518 149.019 20.5518 149.019L62.0765 146.816C63.1834 146.95 64.5828 147.265 66.1662 147.72C68.5464 148.405 71.3401 149.419 74.1792 150.627C76.8594 151.767 79.58 153.081 82.0283 154.466C88.7957 158.295 83.9193 203.983 83.9193 203.983Z" fill="#1F3B6F"/>
<path d="M85.3539 192.93C81.7105 194.118 78.0671 190.757 80.4675 187.787C80.4675 187.787 81.3928 186.759 80.6414 185.975C80.6213 185.955 80.6036 185.935 80.586 185.914C79.8447 185.078 78.9647 182.874 78.9647 182.874L87.6963 182.641C87.6963 182.641 87.7871 183.286 87.8551 184.254C88.0392 186.925 88.0266 192.059 85.3539 192.93Z" fill="#FCC8AB"/>
<path d="M108.225 97.4959L97.2851 102.601L95.9866 103.208C95.9866 103.208 93.4955 85.4705 93.4955 84.7755C93.4955 84.361 97.6179 85.2254 100.987 85.9886C103.258 86.5042 105.192 86.9718 105.291 86.9718L108.225 97.4959Z" fill="#FCC8AB"/>
<path d="M87.8527 184.254L80.5835 185.912C79.8422 185.075 78.9623 182.871 78.9623 182.871L87.6938 182.639C87.6964 182.641 87.7871 183.286 87.8527 184.254Z" fill="#FAB188"/>
<path d="M44.21 184.524H38.5243V205.014H44.21V184.524Z" fill="#A0B8D6"/>
<path d="M47.639 205.08V211.241C47.639 212.025 47.0036 212.662 46.222 212.662H36.5147C35.9121 212.662 35.3977 212.285 35.1935 211.755C35.133 211.595 35.0977 211.421 35.0977 211.241V205.08C35.0977 204.296 35.733 203.659 36.5147 203.659H46.222C46.3027 203.659 46.3834 203.667 46.459 203.68C47.1297 203.796 47.639 204.377 47.639 205.08Z" fill="#D7E3F4"/>
<path d="M62.2454 206.705H20.4862V211.646H62.2454V206.705Z" fill="#D7E3F4"/>
<path d="M44.21 184.524V195.263L38.5243 189.539V184.524H44.21Z" fill="#8AA7C6"/>
<path d="M50.1403 171.978V179.672C50.1403 183.144 47.334 185.957 43.8696 185.957H38.8798C35.4154 185.957 32.6091 183.142 32.6091 179.672V171.978C32.6091 170.384 33.2017 168.928 34.1774 167.821C35.3272 166.517 37.0064 165.693 38.8798 165.693H43.8696C45.6472 165.693 47.2508 166.433 48.393 167.626C49.4747 168.753 50.1403 170.288 50.1403 171.978Z" fill="#D7E3F4"/>
<path d="M50.1403 171.978V179.391L32.6091 173.947V171.978C32.6091 170.384 33.2017 168.928 34.1774 167.821L48.3905 167.626C49.4747 168.753 50.1403 170.288 50.1403 171.978Z" fill="#A0B8D6"/>
<path d="M47.639 205.08V211.241C47.639 212.025 47.0037 212.662 46.222 212.662H36.5147C35.9121 212.662 35.3977 212.285 35.1935 211.755C45.8211 212 46.6431 206.308 46.4616 203.68C47.1297 203.796 47.639 204.377 47.639 205.08Z" fill="#A0B8D6"/>
<path d="M59.4638 217.33C61.3454 215.444 61.3454 212.386 59.4638 210.499C57.5821 208.613 54.5313 208.613 52.6496 210.499C50.7679 212.386 50.7679 215.444 52.6496 217.33C54.5313 219.216 57.5821 219.216 59.4638 217.33Z" fill="#FECA74"/>
<path d="M56.907 215.962C58.0327 215.495 58.5673 214.201 58.101 213.073C57.6347 211.944 56.3441 211.409 55.2184 211.876C54.0926 212.343 53.5581 213.637 54.0244 214.765C54.4907 215.894 55.7813 216.43 56.907 215.962Z" fill="#F4B544"/>
<path d="M30.0818 217.329C31.9635 215.442 31.9635 212.384 30.0818 210.498C28.2001 208.612 25.1493 208.612 23.2677 210.498C21.386 212.384 21.386 215.442 23.2677 217.329C25.1493 219.215 28.2001 219.215 30.0818 217.329Z" fill="#FECA74"/>
<path d="M28.2347 215.477C29.0963 214.614 29.0963 213.213 28.2347 212.35C27.3732 211.486 25.9763 211.486 25.1147 212.35C24.2531 213.213 24.2531 214.614 25.1147 215.477C25.9763 216.341 27.3732 216.341 28.2347 215.477Z" fill="#F4B544"/>
<path d="M67.7345 165.705V169.365C67.7345 170.298 66.9831 171.051 66.0552 171.051H16.7445L15.0173 164.022H66.0552C66.9806 164.022 67.7345 164.775 67.7345 165.705Z" fill="#D7E3F4"/>
<path d="M24.586 171.051H16.7445L15.0149 164.022L0 102.902H8.371L22.9144 164.022L24.586 171.051Z" fill="#D7E3F4"/>
<path d="M67.7346 165.705V168.139L28.0026 164.02H66.0553C66.9807 164.022 67.7346 164.775 67.7346 165.705Z" fill="#A0B8D6"/>
<path d="M194.033 219.049H185.392L175.546 196.052L170.622 184.555L147.332 130.157L139.967 112.959L147.864 111.217L158.217 135.402L174.853 174.253L176.842 178.898L194.033 219.049Z" fill="#D7E3F4"/>
<path d="M158.217 135.402L147.332 130.157L139.967 112.959L147.864 111.217L158.217 135.402Z" fill="#A0B8D6"/>
<path d="M176.842 178.898L175.546 196.052L170.622 184.555L174.853 174.253L176.842 178.898Z" fill="#A0B8D6"/>
<path d="M194.966 113.664L185.087 146.085L162.861 219.049H154.407L178.063 141.389L186.636 113.257L186.898 112.395L191.01 113.042L194.966 113.664Z" fill="#D7E3F4"/>
<path d="M194.966 113.664L184.374 148.426L176.888 145.254L186.636 113.257L191.01 113.042L194.966 113.664Z" fill="#A0B8D6"/>
<path d="M252.628 106.966H97.681V115.463H252.628V106.966Z" fill="#D7E3F4"/>
<path d="M173.164 175.466C173.164 176.138 172.405 176.682 171.472 176.682C170.536 176.682 169.78 176.138 169.78 175.466C169.78 174.794 170.539 174.25 171.472 174.25C172.405 174.25 173.164 174.796 173.164 175.466Z" fill="#A0B8D6"/>
<path d="M129.889 115.463H124.521H97.681V106.966H122.229L129.889 115.463Z" fill="#A0B8D6"/>
<path d="M108.225 97.4959L97.2852 102.601C97.8222 94.046 99.9099 88.3947 100.987 85.9886C103.258 86.5042 105.192 86.9718 105.291 86.9718L108.225 97.4959Z" fill="#FAB188"/>
<path d="M143.631 90.6289C143.631 93.0477 142.978 95.3425 141.805 97.41C140.222 100.198 137.698 102.566 134.556 104.247C131.344 105.968 127.486 106.969 123.336 106.969C112.129 106.969 103.044 99.6543 103.044 90.6289C103.044 81.6036 112.129 74.2893 123.336 74.2893C134.546 74.2893 143.631 81.6036 143.631 90.6289Z" fill="#FCC8AB"/>
<path d="M170.227 92.5923L167.236 93.539L167.987 95.9226L170.978 94.9759L170.227 92.5923Z" fill="#7D9FBF"/>
<path d="M141.808 97.4074C141.805 97.4074 141.805 97.4074 141.808 97.4074C140.224 100.195 137.7 102.563 134.559 104.244C132.4 102.659 128.223 98.6332 127.08 90.629C127.08 90.629 116.959 92.848 115.109 83.6887C113.258 74.5294 134.193 82.238 134.193 82.238C134.193 82.238 140.602 94.7562 141.808 97.4074Z" fill="#FAB188"/>
<path d="M116.531 85.7738C116.987 86.1555 120.215 88.463 122.615 87.682C125.015 86.901 128.843 83.9819 130.056 87.2296C131.268 90.4773 131.321 101.921 137.433 104.108C143.545 106.294 150.31 91.5237 146.114 81.9903C142.451 73.6676 136.508 69.2042 129.531 68.6659C123.445 68.1958 108.846 72.9523 111.128 78.2219C113.407 83.4916 116.531 85.7738 116.531 85.7738Z" fill="#1F3B6F"/>
<path d="M162.899 98.9921L162.745 97.2103L158.931 96.5557L159.231 99.5127L161.106 100.789L159.165 101.338L159.768 106.966H163.678L162.899 98.9921Z" fill="#EDF2FA"/>
<path d="M161.661 98.383C161.661 98.8506 161.283 99.2297 160.816 99.2297C160.35 99.2297 159.972 98.8506 159.972 98.383C159.972 97.9154 160.35 97.5363 160.816 97.5363C161.283 97.5338 161.661 97.9129 161.661 98.383Z" fill="#A0B8D6"/>
<path d="M227.444 84.3383H185.493V97.3089H227.444H236.604V84.3383H227.444Z" fill="#D7E3F4"/>
<path d="M228.969 97.3089H187.019V106.966H228.969H238.457V97.3089H228.969Z" fill="#D7E3F4"/>
<path d="M227.444 84.3383V97.3089H205.231L228.826 101.209V106.966H238.458V97.3089H236.604V84.3383H227.444Z" fill="#A0B8D6"/>
<path d="M260.389 188.063H252.766V218.7H260.389V188.063Z" fill="#A0B8D6"/>
<path d="M252.766 188.063H200.443V218.7H252.766V188.063Z" fill="#D7E3F4"/>
<path d="M232.583 200.856H220.629C219.393 200.856 218.382 199.843 218.382 198.605C218.382 197.366 219.393 196.353 220.629 196.353H232.583C233.818 196.353 234.829 197.366 234.829 198.605C234.829 199.843 233.818 200.856 232.583 200.856Z" fill="#86A7C5"/>
<path d="M252.766 179.338H198.607V190.262H252.766V179.338Z" fill="#F4B544"/>
<path d="M262.075 179.338H252.766V190.262H262.075V179.338Z" fill="#E69E29"/>
<path opacity="0.5" d="M200.443 190.262L252.766 195.531V190.262H200.443Z" fill="#A0B8D6"/>
<path d="M236.637 203.869H216.574V213.723H236.637V203.869Z" fill="white"/>
<path d="M238.543 172.016H207.85V179.336H238.543V172.016Z" fill="#64C5B4"/>
<path d="M256.291 173.318V178.034H257.28V179.338H238.546V172.016H257.28V173.318H256.291Z" fill="#2DBA9D"/>
<path d="M256.289 173.318H239.991V178.034H256.289V173.318Z" fill="#D7E3F4"/>
<path d="M256.289 173.318H239.991V174.491H256.289V173.318Z" fill="#A0B8D6"/>
<path d="M225.246 173.662H210.074V177.693H225.246V173.662Z" fill="white"/>
<path d="M228.37 173.662H226.544V177.693H228.37V173.662Z" fill="white"/>
<path d="M234.391 175.676C234.391 176.788 233.49 177.693 232.379 177.693C231.267 177.693 230.366 176.791 230.366 175.676C230.366 174.564 231.267 173.659 232.379 173.659C233.49 173.659 234.391 174.564 234.391 175.676Z" fill="white"/>
<path d="M232.379 176.988C233.101 176.988 233.687 176.4 233.687 175.676C233.687 174.951 233.101 174.364 232.379 174.364C231.656 174.364 231.07 174.951 231.07 175.676C231.07 176.4 231.656 176.988 232.379 176.988Z" fill="#2DBA9D"/>
<path d="M232.86 164.793H202.167V172.112H232.86V164.793Z" fill="#D7E3F4"/>
<path d="M250.608 166.095V170.813H251.594V172.115H232.86V164.793H251.594V166.095H250.608Z" fill="#86A7C5"/>
<path d="M250.606 166.095H234.307V170.811H250.606V166.095Z" fill="#D7E3F4"/>
<path d="M250.606 166.095H234.307V167.267H250.606V166.095Z" fill="#A0B8D6"/>
<path d="M219.56 166.438H204.389V170.469H219.56V166.438Z" fill="white"/>
<path d="M222.686 166.438H220.861V170.469H222.686V166.438Z" fill="white"/>
<path d="M228.707 168.453C228.707 169.565 227.807 170.469 226.695 170.469C225.586 170.469 224.683 169.567 224.683 168.453C224.683 167.341 225.583 166.436 226.695 166.436C227.807 166.438 228.707 167.341 228.707 168.453Z" fill="white"/>
<path d="M226.695 169.764C227.418 169.764 228.004 169.177 228.004 168.453C228.004 167.728 227.418 167.141 226.695 167.141C225.973 167.141 225.387 167.728 225.387 168.453C225.387 169.177 225.973 169.764 226.695 169.764Z" fill="#86A7C5"/>
<path d="M80.518 181.989H78.5664L66.1663 147.723C68.5464 148.408 71.3401 149.421 74.1792 150.629L80.518 181.989Z" fill="#062542"/>
<path d="M62.0765 146.816L21.2175 154.696C20.4838 151.64 20.5518 149.019 20.5518 149.019L62.0765 146.816Z" fill="#062542"/>
<path d="M95.2831 84.821C95.2831 84.821 21.3057 57.2521 19.9164 150.816L62.0765 146.816L66.5872 134.469L78.7328 182.641H88.6216L96.0269 103.208L95.2831 84.821Z" fill="#F4B544"/>
<path d="M77.2855 178.178H81.5366L82.6939 179.882L84.0227 178.178H89.7487L89.0251 183.372L78.4706 183.655L77.2855 178.178Z" fill="#EDF2FA"/>
<path d="M87.0029 180.915C87.0029 181.507 86.5238 181.987 85.9338 181.987C85.3438 181.987 84.8647 181.507 84.8647 180.915C84.8647 180.324 85.3438 179.844 85.9338 179.844C86.5238 179.844 87.0029 180.324 87.0029 180.915Z" fill="#A0B8D6"/>
<path d="M121 46.5L131 11" stroke="#F4B544" stroke-linejoin="round" stroke-dasharray="2 2"/>
<path d="M147 1.2014L182.556 10.9998" stroke="#F4B544" stroke-linejoin="round" stroke-dasharray="2 2"/>
</svg>
