<svg xmlns="http://www.w3.org/2000/svg" width="17.074" height="21.343" viewBox="0 0 17.074 21.343">
  <g id="noun-lock-locked-4434869" transform="translate(-163.325 -46.676)" opacity="0.65">
    <path id="Path_32" data-name="Path 32" d="M326.67,327.735a1.067,1.067,0,1,1,2.134,0V328.8a1.067,1.067,0,1,1-2.134,0Z" transform="translate(-155.874 -267.186)" fill="#737374"/>
    <path id="Path_33" data-name="Path 33" d="M177.2,55.347q0-.067,0-.134v-3.2a5.336,5.336,0,0,0-10.672,0v3.2q0,.067,0,.134a4.27,4.27,0,0,0-3.2,4.135v4.269a4.269,4.269,0,0,0,4.269,4.269h8.537a4.269,4.269,0,0,0,4.269-4.269V59.482a4.27,4.27,0,0,0-3.2-4.135Zm-2.133-.134v-3.2a3.2,3.2,0,1,0-6.4,0v3.2Zm3.2,4.269a2.134,2.134,0,0,0-2.134-2.134h-8.537a2.134,2.134,0,0,0-2.134,2.134v4.269a2.134,2.134,0,0,0,2.134,2.134h8.537a2.134,2.134,0,0,0,2.134-2.134Z" transform="translate(0 0)" fill="#737374" fill-rule="evenodd"/>
  </g>
</svg>
